<svg xmlns="http://www.w3.org/2000/svg"  viewBox="0 0 64 64" width="48px" height="48px"><path d="M 23.773438 12 C 12.855437 12 12 12.854437 12 23.773438 L 12 40.226562 C 12 51.144563 12.855438 52 23.773438 52 L 40.226562 52 C 51.144563 52 52 51.145563 52 40.226562 L 52 23.773438 C 52 12.854437 51.145563 12 40.226562 12 L 23.773438 12 z M 21.167969 16 L 42.832031 16 C 47.625031 16 48 16.374969 48 21.167969 L 48 42.832031 C 48 47.625031 47.624031 48 42.832031 48 L 21.167969 48 C 16.374969 48 16 47.624031 16 42.832031 L 16 21.167969 C 16 16.374969 16.374969 16 21.167969 16 z M 26.285156 24.589844 C 22.193156 24.589844 18.875 27.908 18.875 32 C 18.875 36.092 22.193156 39.410156 26.285156 39.410156 C 30.377156 39.410156 33.695312 36.092 33.695312 32 C 33.695312 27.908 30.377156 24.589844 26.285156 24.589844 z M 38.103516 24.947266 C 36.077516 24.947266 34.435547 28.105 34.435547 32 C 34.435547 35.895 36.077516 39.052734 38.103516 39.052734 C 40.129516 39.052734 41.771484 35.894 41.771484 32 C 41.771484 28.105 40.129516 24.947266 38.103516 24.947266 z M 43.800781 25.701172 C 43.096781 25.701172 42.525391 28.521 42.525391 32 C 42.525391 35.479 43.096781 38.298828 43.800781 38.298828 C 44.505781 38.298828 45.074219 35.479 45.074219 32 C 45.074219 28.521 44.504781 25.701172 43.800781 25.701172 z"/></svg>